<svg width="24" height="24" viewBox="0 0 24 24" fill="none" xmlns="http://www.w3.org/2000/svg">
  <!-- Chat bubble with a "C" (CVSU) — monochrome; VS Code recolors via currentColor. -->
  <path fill-rule="evenodd" clip-rule="evenodd"
    d="M3 4.5C3 3.67 3.67 3 4.5 3h15c.83 0 1.5.67 1.5 1.5v11c0 .83-.67 1.5-1.5 1.5H9l-4.2 3.6c-.65.56-1.65.1-1.65-.76V4.5Zm1.5 0v12.84L8.2 14.5H19.5v-10h-15Z"
    fill="currentColor"/>
  <path d="M14.2 7.6a3.2 3.2 0 1 0 0 4.8l-1-1a1.8 1.8 0 1 1 0-2.8l1-1Z" fill="currentColor"/>
</svg>
